<?xml version="1.0" standalone="no"?>
<!DOCTYPE svg PUBLIC "-//W3C//DTD SVG 20010904//EN"
 "http://www.w3.org/TR/2001/REC-SVG-20010904/DTD/svg10.dtd">
<svg version="1.0" xmlns="http://www.w3.org/2000/svg"
 width="250.000000pt" height="150.000000pt" viewBox="0 0 250.000000 150.000000"
 preserveAspectRatio="xMidYMid meet">

<g transform="translate(0.000000,150.000000) scale(0.100000,-0.100000)"
fill="#000000" stroke="none">
<path d="M1565 918 c-3 -8 -4 -88 -3 -178 l3 -165 25 0 25 0 0 175 c0 174 0
175 -23 178 -12 2 -24 -3 -27 -10z"/>
<path d="M393 908 c-20 -25 -113 -322 -104 -331 12 -12 42 -5 52 13 5 8 13 27
19 43 9 25 13 27 65 27 52 0 56 -2 65 -27 20 -57 48 -79 72 -55 11 11 -71 276
-98 320 -16 24 -55 30 -71 10z m77 -200 c0 -5 -18 -8 -39 -8 -22 0 -42 3 -44
8 -2 4 5 41 17 82 l20 75 23 -75 c13 -41 23 -78 23 -82z"/>
<path d="M1255 908 c-3 -8 -4 -86 -3 -173 l3 -160 65 -3 c116 -6 170 27 170
103 0 29 -40 75 -65 75 -11 0 -4 11 20 35 31 29 36 39 31 62 -14 54 -38 68
-131 72 -66 2 -86 0 -90 -11z m157 -64 c11 -23 10 -29 -11 -45 -13 -11 -38
-19 -57 -19 -34 0 -34 1 -34 45 l0 45 45 0 c39 0 47 -4 57 -26z m-4 -130 c26
-18 28 -41 6 -72 -12 -17 -25 -22 -60 -22 l-44 0 0 55 0 55 38 0 c21 0 48 -7
60 -16z"/>
<path d="M576 811 c-3 -5 13 -59 36 -121 l42 -113 -17 -47 c-22 -61 -22 -60 8
-60 30 0 29 -1 100 183 58 150 60 176 18 163 -13 -4 -27 -32 -47 -92 -15 -47
-30 -84 -32 -81 -3 2 -14 38 -26 78 -11 41 -25 80 -30 87 -12 14 -44 16 -52 3z"/>
<path d="M855 807 c-31 -23 -9 -38 46 -31 33 4 54 3 64 -6 28 -23 16 -37 -37
-43 -64 -8 -98 -37 -98 -84 0 -20 8 -41 20 -53 24 -24 77 -27 106 -6 16 13 21
12 36 -1 10 -8 24 -13 33 -10 12 5 15 25 15 102 0 88 -2 98 -25 120 -20 21
-34 25 -83 25 -33 0 -66 -6 -77 -13z m125 -137 c0 -51 -81 -81 -88 -32 -5 33
15 52 54 52 27 0 34 -4 34 -20z"/>
<path d="M1734 802 c-32 -25 -44 -55 -44 -107 0 -90 47 -132 136 -122 54 6 81
28 94 79 15 52 2 107 -31 140 -23 24 -36 28 -81 28 -35 0 -60 -6 -74 -18z
m108 -39 c24 -22 25 -109 1 -135 -39 -43 -93 -4 -93 67 0 71 49 107 92 68z"/>
<path d="M1999 794 c-21 -22 -24 -35 -24 -96 0 -66 2 -71 33 -99 28 -25 39
-29 65 -24 18 4 36 11 42 16 18 18 27 8 21 -23 -10 -49 -23 -58 -82 -58 -46 0
-54 -3 -54 -19 0 -22 19 -31 66 -31 57 0 103 25 119 64 20 48 21 268 1 285
-14 12 -46 5 -46 -11 0 -5 -10 -2 -22 6 -35 25 -90 20 -119 -10z m121 -34 c25
-25 27 -95 3 -122 -38 -42 -93 -6 -93 62 0 69 48 102 90 60z"/>
</g>
</svg>
